<svg width="284" height="50" viewBox="0 0 284 50" fill="none" xmlns="http://www.w3.org/2000/svg">
<circle cx="25" cy="25" r="20.236" transform="rotate(74.123 25 25)" fill="#25273D"/>
<path d="M36.1021 24.6548L22.2443 34.0504L17.6934 17.9381L36.1021 24.6548Z" stroke="white" stroke-width="1.18178"/>
<path d="M19.0708 34.1193L21.0119 17.4896L36.1831 24.5713L19.0708 34.1193Z" stroke="white" stroke-width="1.18178"/>
<path d="M64.832 28.128C65.5147 29.344 66.3147 30.3147 67.232 31.04C68.1707 31.744 69.2053 32.096 70.336 32.096C71.1467 32.096 71.7973 31.904 72.288 31.52C72.8 31.1147 73.056 30.5707 73.056 29.888C73.056 29.3333 72.9067 28.8747 72.608 28.512C72.3093 28.1493 71.8293 27.808 71.168 27.488C70.528 27.168 69.664 26.8053 68.576 26.4C68.0213 26.1867 67.4027 25.9093 66.72 25.568C66.0373 25.2267 65.376 24.7893 64.736 24.256C64.1173 23.7227 63.6053 23.072 63.2 22.304C62.7947 21.5147 62.592 20.576 62.592 19.488C62.592 18.144 62.9333 17.0027 63.616 16.064C64.32 15.104 65.2587 14.368 66.432 13.856C67.6267 13.344 68.9493 13.088 70.4 13.088C71.9147 13.088 73.216 13.3333 74.304 13.824C75.392 14.3147 76.2987 14.9333 77.024 15.68C77.7493 16.4267 78.304 17.184 78.688 17.952L74.56 20.256C74.0693 19.4453 73.4827 18.8053 72.8 18.336C72.1173 17.8453 71.3387 17.6 70.464 17.6C69.696 17.6 69.1093 17.7707 68.704 18.112C68.32 18.432 68.128 18.8373 68.128 19.328C68.128 20.096 68.5547 20.7253 69.408 21.216C70.2827 21.6853 71.4987 22.1973 73.056 22.752C74.1013 23.1147 75.0507 23.6053 75.904 24.224C76.7787 24.8213 77.472 25.568 77.984 26.464C78.5173 27.3387 78.784 28.3947 78.784 29.632C78.784 31.1467 78.3893 32.4373 77.6 33.504C76.8107 34.5493 75.776 35.3493 74.496 35.904C73.2373 36.4373 71.904 36.704 70.496 36.704C69.0453 36.704 67.6907 36.448 66.432 35.936C65.1947 35.4027 64.1067 34.6987 63.168 33.824C62.2507 32.928 61.5467 31.936 61.056 30.848L64.832 28.128ZM85.088 18.464V13.6H102.816V18.464H96.672V36H91.232V18.464H85.088ZM122.078 36L119.966 31.68H112.862L110.782 36H104.638L116.446 12.192L128.222 36H122.078ZM116.446 21.856L113.95 27.552H118.91L116.446 21.856ZM139.2 24.8C139.2 26.1653 139.499 27.3387 140.096 28.32C140.715 29.3013 141.536 30.0587 142.56 30.592C143.584 31.104 144.694 31.36 145.888 31.36C147.467 31.36 148.79 31.0613 149.856 30.464C150.944 29.8667 151.851 29.1733 152.576 28.384V34.272C151.68 34.9547 150.699 35.4987 149.632 35.904C148.566 36.3093 147.211 36.512 145.568 36.512C143.179 36.512 141.056 36.0213 139.2 35.04C137.344 34.0587 135.894 32.6933 134.848 30.944C133.803 29.1733 133.28 27.1253 133.28 24.8C133.28 22.4747 133.803 20.4373 134.848 18.688C135.894 16.9173 137.344 15.5413 139.2 14.56C141.056 13.5787 143.179 13.088 145.568 13.088C147.211 13.088 148.566 13.2907 149.632 13.696C150.699 14.1013 151.68 14.6453 152.576 15.328V21.216C151.851 20.4053 150.944 19.712 149.856 19.136C148.79 18.5387 147.467 18.24 145.888 18.24C144.694 18.24 143.584 18.5067 142.56 19.04C141.536 19.552 140.715 20.2987 140.096 21.28C139.499 22.24 139.2 23.4133 139.2 24.8ZM161.927 13.6H167.527V22.432L175.143 13.6H181.511L172.423 24.096L181.991 36H175.431L167.527 26.208V36H161.927V13.6ZM199.67 26.944L205.11 13.6H211.446L199.67 37.408L187.862 13.6H194.198L199.67 26.944ZM218.753 13.6H233.633V18.048H223.969V22.048H232.993V26.432H223.969V31.552H233.633V36H218.753V13.6ZM245.458 28.128C246.141 29.344 246.941 30.3147 247.858 31.04C248.797 31.744 249.832 32.096 250.962 32.096C251.773 32.096 252.424 31.904 252.914 31.52C253.426 31.1147 253.682 30.5707 253.682 29.888C253.682 29.3333 253.533 28.8747 253.234 28.512C252.936 28.1493 252.456 27.808 251.794 27.488C251.154 27.168 250.29 26.8053 249.202 26.4C248.648 26.1867 248.029 25.9093 247.346 25.568C246.664 25.2267 246.002 24.7893 245.362 24.256C244.744 23.7227 244.232 23.072 243.826 22.304C243.421 21.5147 243.218 20.576 243.218 19.488C243.218 18.144 243.56 17.0027 244.242 16.064C244.946 15.104 245.885 14.368 247.058 13.856C248.253 13.344 249.576 13.088 251.026 13.088C252.541 13.088 253.842 13.3333 254.93 13.824C256.018 14.3147 256.925 14.9333 257.65 15.68C258.376 16.4267 258.93 17.184 259.314 17.952L255.186 20.256C254.696 19.4453 254.109 18.8053 253.426 18.336C252.744 17.8453 251.965 17.6 251.09 17.6C250.322 17.6 249.736 17.7707 249.33 18.112C248.946 18.432 248.754 18.8373 248.754 19.328C248.754 20.096 249.181 20.7253 250.034 21.216C250.909 21.6853 252.125 22.1973 253.682 22.752C254.728 23.1147 255.677 23.6053 256.53 24.224C257.405 24.8213 258.098 25.568 258.61 26.464C259.144 27.3387 259.41 28.3947 259.41 29.632C259.41 31.1467 259.016 32.4373 258.226 33.504C257.437 34.5493 256.402 35.3493 255.122 35.904C253.864 36.4373 252.53 36.704 251.122 36.704C249.672 36.704 248.317 36.448 247.058 35.936C245.821 35.4027 244.733 34.6987 243.794 33.824C242.877 32.928 242.173 31.936 241.682 30.848L245.458 28.128ZM265.714 18.464V13.6H283.442V18.464H277.298V36H271.858V18.464H265.714Z" fill="#25273D"/>
</svg>
